<?xml version="1.0" encoding="utf-8"?>
<!-- Generator: Adobe Illustrator 21.0.0, SVG Export Plug-In . SVG Version: 6.00 Build 0)  -->
<svg version="1.1" id="Layer_1" xmlns="http://www.w3.org/2000/svg" xmlns:xlink="http://www.w3.org/1999/xlink" x="0px" y="0px"
	 viewBox="0 0 283.5 198.4" style="enable-background:new 0 0 283.5 198.4;" xml:space="preserve">
<style type="text/css">
	.st0{opacity:0.26;}
	.st1{fill:#FFDC72;}
	.st2{fill:none;stroke:#6E75F4;stroke-width:0.75;stroke-miterlimit:10;}
	.st3{fill:#02A3A3;}
	.st4{fill:#02B7B7;}
	.st5{fill:none;stroke:#7289F7;stroke-miterlimit:10;}
	.st6{fill:#D18D05;}
	.st7{fill:#3D4FB7;}
	.st8{fill:none;stroke:#3D4FB7;stroke-miterlimit:10;}
	.st9{fill:#0A5B9E;}
	.st10{fill:#048480;}
	.st11{fill:#386FCB;}
	.st12{fill:#2461BA;}
	.st13{fill:#FFB000;}
	.st14{opacity:0.63;fill:#D18D05;}
</style>
<g class="st0">
	<path class="st1" d="M92,157c12.7,2.5,24,9.9,36,15c15.2,6.5,32,9.2,48.4,7.8c19.6-1.6,38.7-8.9,58.3-8.7c9.7,0.1,20.4,1.7,28-4.4
		c-10.2-10.5-21.8-19.6-34.5-26.8"/>
</g>
<g>
	<g>
		<path class="st2" d="M69,150.8"/>
	</g>
</g>
<g id="XMLID_436_">
	<path id="XMLID_409_" class="st3" d="M81.5,65.8C79,65.4,76.4,65,74,66.1c-2.1,1-3.6,2.9-5.3,4.6c-1.7,1.7-3.8,3.3-6,3
		c-2.4-0.2-4.4-2.6-4.7-5.2c-0.3-2.6,0.8-5.2,2.6-7c1.8-1.8,4.2-2.7,6.5-3.1c2.4-0.4,4.8-0.3,7.2-0.1"/>
	<path id="XMLID_375_" class="st3" d="M66.6,86.3c-1.8,0.2-3.6,0.4-5.2,1.2c-1.6,0.8-3,2.4-3.2,4.2c-0.2,1.9,1.2,3.9,3,3.9
		c1.1,0,2.1-0.7,2.9-1.4c0.9-0.9,1.7-1.8,2.7-2.6c1.1-0.9,2.3-1.3,3.6-1.7c1.4-0.5,2.9-1.3,3.3-2.8"/>
	<path id="XMLID_373_" class="st4" d="M90.2,103.5c0.2-5.8-2-11.7-6.1-15.4c-4.2-3.8-10.3-5.3-15.5-3.5c-2.1,0.7-5.1,1.6-7.8,3.3
		c7.7-1,14.4,5.5,15.6,6.4c0.8,0.6,1.5,1.3,2.2,1.9C81.6,99,86.6,101.6,90.2,103.5"/>
	<path id="XMLID_367_" class="st4" d="M94.2,90c-0.5-2.8,0.3-5.5,0.9-8.3c1.1-5.6,0.9-11.6-1.6-16.7c-2.5-5-7.8-8.8-13.3-8.2
		c-2,0.2-3.8,1-5.8,1.3c-1.8,0.3-3.7,0.3-5.6,0.2c-0.8,0-1.9,0.2-2.6,0.6c5.3,1.4,8.3,6.3,13.5,9.1C85.1,71,85.9,81.3,94.2,90"/>
	<path id="XMLID_366_" class="st4" d="M98.6,83.2c0.2-2.9,2-5.5,4-7.5c2-2,4.4-3.7,6.3-5.9c1.1-1.3,2-2.8,2.9-4.3
		c1.3-2.2,2.7-4.4,4-6.6c0.8-1.4,1.7-2.8,2.4-4.3c0.8-1.6,1.4-3.3,1.9-5c0.5-1.7,1.1-3.4,1.5-5.1c0.4-1.3,0.7-2.7,0.7-4
		c0-1.4-0.3-2.8-1.2-3.8c-1.2-1.4-3.1-1.8-4.8-1.5c-1.7,0.3-3.3,1.2-4.7,2.3c-0.9,0.7-1.7,1.4-2.4,2.2c-1.8,2.3-2.4,5.4-3.4,8.3
		c-1.8,5.1-5.3,9.4-6.9,14.6c-0.5,1.7-0.8,3.4-1.1,5.1C97.3,71.1,96.7,79.2,98.6,83.2"/>
	<path id="XMLID_365_" class="st5" d="M115.2,41c-3,5.7-5.9,11.5-8.9,17.2c-1.1,2.1-2.2,4.3-3.2,6.5c-5.1,12.1-6.8,40.2-6.3,58.6"/>
	<path id="XMLID_364_" class="st5" d="M75.1,58.3c2.7-0.3,5.3,1,7.4,2.8c6.7,5.5,9.2,14.8,10.6,23.6c1.7,10.6,2.3,21.4,1.8,32.1"/>
	<path id="XMLID_363_" class="st5" d="M67.1,85.9c5.7-1.4,11.9,1.1,16.1,5.4c4.2,4.3,6.6,10.2,7.7,16.3c1.1,6,1.1,12.2,1,18.4"/>
	<path id="XMLID_362_" class="st3" d="M106.7,82.1c6-7.6,14.9-13.6,24.4-11.3c3.9,1,7.7,2.7,11.4,4.4c-8.5-1.8-11.4-1.6-17.5,1.4
		c-6,3-9.3,10.6-13.1,16.3c-1.2,1.8-9,11.5-9.5,5.5C101.9,92.9,103.4,86.3,106.7,82.1z"/>
	<path id="XMLID_357_" class="st5" d="M134.3,71.8c-6.7-1.3-14-0.7-19.1,4.3c-5.1,5-10.3,16.3-12.5,23.4c-2.2,7.2-3.2,14.7-4.2,22.2
		"/>
	<g id="XMLID_633_">
		<g id="XMLID_637_">
			<polygon id="XMLID_639_" class="st6" points="84.4,145 108.3,145 112.9,114.9 79.8,114.9 			"/>
			<polygon id="XMLID_638_" class="st7" points="81.1,123.4 80.8,121.6 111.9,121.6 111.6,123.4 			"/>
		</g>
		<line id="XMLID_636_" class="st8" x1="106.8" y1="122.5" x2="114.1" y2="172.3"/>
		<line id="XMLID_635_" class="st8" x1="86.1" y1="122.5" x2="78.8" y2="172.3"/>
		<line id="XMLID_634_" class="st8" x1="96.4" y1="122.5" x2="96.4" y2="172.3"/>
	</g>
	<path id="XMLID_376_" class="st4" d="M142.3,75c3.6,2.6,5.6,6.2,2.5,10.8c-2.3,3.3-7.2,3.6-10.7,1.8c-3.5-1.8-6.1-5.1-8.8-8
		c-2.7-3-11.2-4.8-11.2-4.8s2-2,4.2-2.9c1.1-0.4,2.2-0.8,3.3-1.1c2.4-0.6,4.8-0.8,7.2-0.6C133.4,70.6,138.4,72.3,142.3,75z"/>
	<path id="XMLID_86_" class="st5" d="M121.5,70.8c8.6,0.8,15.8,4.9,18.6,9.9"/>
</g>
<path class="st4" d="M160.2,75.9c2-9.1,9.4-2.2,14,3.9s12.2,24,8,46.1"/>
<path class="st3" d="M182.2,124.4c1.5-34.3-14.9-45.5-21.7-49.7"/>
<path class="st9" d="M180.9,124.8"/>
<path class="st9" d="M174.1,75.9"/>
<path class="st3" d="M184.2,124.2c0,0,1-10.9,4.6-19.3c3.6-8.4,14.5-27.6,10.6-39.6c-4-12-12.4-3.1-13.7,7.8
	c-1.2,10.9-4.9,42.1-2.6,51.9L184.2,124.2z"/>
<path class="st10" d="M199.4,65.3c4,12-7,31.2-10.6,39.6c-3.6,8.4-4.6,19.3-4.6,19.3l-1.1,0.7c0-0.1,0-0.2,0-0.3
	c4.1-12.7,9.5-50.4,11.8-65.1C196.5,59.9,198.2,61.6,199.4,65.3z"/>
<path class="st4" d="M177.4,132.9c0,0-0.7-21.1-9.2-28.6c-8.5-7.5-20.4-5.3-21.5-9.8c-1.1-4.5,0.6-7.9,6.7-7.6
	c6.1,0.3,29.4,3.4,25.9,46.1H177.4z"/>
<path class="st4" d="M216.9,88.4c0.5-9.3-8.5-4.8-14.5-0.3c-6,4.6-18.1,19.6-20,42"/>
<path class="st3" d="M182.8,129c0-0.1,0-0.3,0-0.4c7.7-33.4,26.4-39.4,34.1-41.4c0,0.4,0,0.8,0,1.3c-0.5,9.3-11.2,6.8-20,15.6
	c-8.8,8.8-12.9,25.7-12.9,25.7l-1.6,0.5C182.6,129.8,182.7,129.4,182.8,129L182.8,129z"/>
<path class="st11" d="M176,150.7c4.4,1.6,9.2,1.6,14.5,0l5.2-27.5h-26.5L176,150.7z"/>
<rect x="168.3" y="121.4" transform="matrix(-1 -4.492197e-11 4.492197e-11 -1 364.7911 247.5603)" class="st12" width="28.2" height="4.7"/>
<g>
	<g>
		<path class="st3" d="M63.3,157.4c0,0,0.9-5.4-1.5-10.8c-2.4-5.4-3.8-3.7-8.7-8c-4.9-4.3-4.6-8.2-4.6-8.2s-1.4,7.4,5.3,13.5
			C60.4,150,61.7,145.2,63.3,157.4z"/>
		<path class="st10" d="M62.3,159.7c0,0-0.9-24.5,1.5-34.1c2.4-9.5,3.1-12,2.9-14.6c-0.2-2.6,1.3-1.7,1.6,5.7
			c0.4,7.4-1.1,11.1-1.7,14.5C66,134.6,62.5,155.8,62.3,159.7z"/>
		<path class="st3" d="M64.4,152.5c0,0,4-3.2,6.4-5.7c2.4-2.5,3.5-0.7,5.4-6.7c1.9-5.9,2.6-11.2,2.6-11.2s-3.4,2.6-4.3,6.3
			c-1,3.7-3.3,6-6.5,8.7C64.8,146.6,64.4,152.5,64.4,152.5z"/>
		<path class="st10" d="M65.3,157.1c0-0.3-0.1-5-6-8c-6-3.1-10.1-4.1-10.1-4.1s2.7,4.1,5.7,5.7c2.9,1.6,8.7,2.2,10.4,7.1"/>
		<path class="st10" d="M62.2,156.2c0-0.2,0.1-4.1,5-6.7c5-2.5,8.4-3.4,8.4-3.4s-2.3,3.4-4.7,4.8c-2.4,1.4-7.3,1.8-8.7,5.9"/>
		<path class="st4" d="M63.1,160.3c0,0.1,0-12.3-4.4-18c-4.4-5.7-5.4-12.3-5.2-16.3c0.2-4,0.3-8.2,0-9.9c-0.4-1.7,1.5,0.9,2.3,9
			c0.9,8.1,4.3,9.8,6,14.2C63.4,143.5,66,152.3,63.1,160.3z"/>
		<path class="st3" d="M63.6,159.7c0,0-0.8-12.4,1.1-18.6c1.9-6.2,4.6-6,6.3-10s1.5-6.2,1.5-6.2s1.8,1.5,0,7.6
			c-1.8,6.2-3.5,5.4-4.1,9.8C67.8,146.7,64.3,158.1,63.6,159.7z"/>
	</g>
	<g>
		<path class="st13" d="M57.3,160.6c1-3.4,0-7.5,0-7.5h2.1h7.9h2.1c0,0-1,4,0,7.5c1,3.4,7.5,19.2-3.2,24.5h-0.4h-4.8h-0.4
			C49.8,179.8,56.3,164,57.3,160.6z"/>
		
			<rect x="56.2" y="152.5" transform="matrix(-1 -4.491131e-11 4.491131e-11 -1 126.6571 307.0988)" class="st13" width="14.3" height="2"/>
	</g>
	<path class="st6" d="M57.3,160.6c0.6-2.1,0.5-4.5,0.3-6h10.5c0,0-8.2,0.8-7.3,4c0.9,3.1,2,6.3-2.2,8.2c-4.2,1.9-1.6,14.3,2.4,18.3
		h-0.4C49.8,179.8,56.3,164,57.3,160.6z"/>
	<line class="st14" x1="56.2" y1="152.5" x2="56.2" y2="154.6"/>
	<path class="st14" d="M68.1,154.6"/>
</g>
</svg>
