<?xml version="1.0" encoding="utf-8"?>
<!-- Generator: Adobe Illustrator 21.0.0, SVG Export Plug-In . SVG Version: 6.00 Build 0)  -->
<svg version="1.1" id="Layer_1" xmlns="http://www.w3.org/2000/svg" xmlns:xlink="http://www.w3.org/1999/xlink" x="0px" y="0px"
	 viewBox="0 0 283.5 283.5" style="enable-background:new 0 0 283.5 283.5;" xml:space="preserve">
<style type="text/css">
	.st0{fill:#048480;}
	.st1{fill:none;}
	.st2{fill:#CCE0F2;}
	.st3{fill:#02A3A3;}
	.st4{fill:#02B7B7;}
	.st5{fill:none;stroke:#7289F7;stroke-miterlimit:10;}
	.st6{fill:#386FCB;}
	.st7{fill:#2461BA;}
</style>
<g>
	<path class="st0" d="M146.8,100.8c3.4-0.9,6.3-2.8,7-6.1c0.5-2.6,0.6-5.7-0.4-8.9c-2.8-9.4-10.6-31.1,1.2-27.9
		c11.8,3.2,4.1-11.8,3.4-18.7c-0.6-6.9,4.2-8,13.3-12.5c12.1-5.9,23.7,4.3,22.8,16.8c-0.9,12.4-9.7,11.7-6.5,19.3
		c3.2,7.7,4.2,6.9-4.2,16.4c-8.4,9.5-14.3,6.9-7.2,15.1c7.1,8.2-13.5,14.7-21.9,24.6C147.2,127.3,142,102.1,146.8,100.8z"/>
	<path class="st0" d="M142.4,141.3c0,0,29.1-78.6,33.6-90.3c4.5-11.6,6.1-5.1,2.9,2.8C175.7,61.9,149.5,130.5,142.4,141.3z"/>
</g>
<path class="st1" d="M131.7,75.4l11.6-0.4C143.3,75,138.9,74.9,131.7,75.4z"/>
<ellipse class="st2" cx="144.2" cy="256" rx="30" ry="4.3"/>
<g>
	<path class="st3" d="M133.3,135.4c2.7-1.9,4.8-4.5,4.2-7.6c-0.4-2.4-1.4-5.2-3.4-7.7c-5.8-7.3-20.4-23.8-8.6-24.9
		c11.8-1.1-0.4-11.7-3.4-17.6c-3-5.8,1-8.4,7.7-15.4c8.9-9.2,22.9-4.1,26.4,7.1c3.5,11.2-4.7,13.5,0.9,19.1
		c5.6,5.6,6.2,4.7,1.9,15.8c-4.3,11.1-10.5,10.8-1.3,15.6c9.2,4.8-7.1,17.4-11.3,28.8C142.8,158.5,129.4,138.1,133.3,135.4z"/>
	<path class="st3" d="M143.3,172.4c0,0-0.9-78.6-0.9-90.3c0.1-11.7,3.7-6.5,3.6,1.5C145.9,91.6,145.9,160.5,143.3,172.4z"/>
</g>
<path class="st4" d="M97,42.9c-1.4,14.7,8.6,15.8,3.6,24c-5.1,8.2-6.1,7.1,1.6,20.1c7.6,13,14.7,11.3,5.2,19.3
	c-9.5,7.9,12.3,20.2,19.8,33.6c6.4,11.4,17.1-16.9,11.9-19.4c-3.6-1.8-6.6-4.6-6.7-8.7c-0.1-3.1,0.4-6.7,2.1-10.4
	c4.9-10.3,17.8-33.9,4-32.8s-2.3-14.7-0.3-22.6"/>
<path class="st5" d="M136.3,168.8c0,0-17.6-98.3-20.4-112.9c-2.8-14.6-5.8-7.3-3.8,2.6C114.2,68.5,130.5,154.5,136.3,168.8z"/>
<path class="st5" d="M161.6,104.1c0,0,13.5-50.4,15.4-57.9c1.9-7.5-1.1-4.8-2.4,0.4C173.4,51.8,162,96,161.6,104.1z"/>
<path class="st4" d="M138.2,46.3c-6.4-20.9-29.3-20.2-41.6-3.1"/>
<g>
	<path class="st4" d="M149.5,132.9c2.2-0.6,4.2-2,4.7-4.2c0.4-1.8,0.5-3.9-0.1-6.1c-1.7-6.4-6.6-21.2,1.1-19.1
		c7.7,2.1,2.9-8.1,2.5-12.8c-0.3-4.7,2.9-5.6,9-8.7c8.1-4.2,15.6,2.7,14.9,11.2c-0.8,8.5-6.6,8.1-4.5,13.3c2,5.2,2.7,4.7-3,11.3
		c-5.7,6.6-9.6,4.9-5,10.4c4.6,5.5-9.1,10.2-14.8,17.1C149.4,151,146.3,133.8,149.5,132.9z"/>
	<path class="st4" d="M146,160.7c0,0,20.2-54.2,23.3-62.2c3.1-8,4.1-3.6,1.9,1.9C169,105.9,150.8,153.1,146,160.7z"/>
</g>
<path class="st5" d="M151.1,146.9c0,0,20.8-47.8,23.8-55c3-7.2-0.4-4.9-2.4,0.1C170.5,97,152.7,139,151.1,146.9z"/>
<g>
	<g>
		<path class="st6" d="M164.6,169.4c-3.4-12,0-26.1,0-26.1h-7.4h-27.7h-7.4c0,0,3.4,14.1,0,26.1c-3.4,12-26.2,67.4,11.2,85.9h1.6
			h16.9h1.6C190.8,236.9,168,181.4,164.6,169.4z"/>
		<rect x="118.4" y="141.3" class="st6" width="50" height="7.1"/>
	</g>
	<path class="st7" d="M164.6,169.4c-2.1-7.5-1.6-15.8-0.9-21h-36.9c0,0,28.8,3,25.7,13.9c-3.2,11-6.9,22.2,7.8,28.8
		c14.7,6.6,5.6,50.2-8.5,64.1h1.6C190.8,236.9,168,181.4,164.6,169.4z"/>
	<path class="st6" d="M126.8,148.5c0,0,9.4-0.5,12.6-7.1h29v7.1L126.8,148.5z"/>
</g>
</svg>
