<?xml version="1.0" encoding="utf-8"?>
<!-- Generator: Adobe Illustrator 21.0.0, SVG Export Plug-In . SVG Version: 6.00 Build 0)  -->
<svg version="1.1" id="Layer_1" xmlns="http://www.w3.org/2000/svg" xmlns:xlink="http://www.w3.org/1999/xlink" x="0px" y="0px"
	 viewBox="0 0 198.4 283.5" style="enable-background:new 0 0 198.4 283.5;" xml:space="preserve">
<style type="text/css">
	.st0{fill:none;stroke:#93A5F9;stroke-miterlimit:10;}
	.st1{fill:none;stroke:#6E75F4;stroke-width:0.75;stroke-miterlimit:10;}
	.st2{fill:#02A3A3;}
	.st3{fill:#02B7B7;}
	.st4{fill:none;stroke:#7289F7;stroke-miterlimit:10;}
	.st5{fill:#D18D05;}
	.st6{fill:#3D4FB7;}
	.st7{fill:none;stroke:#3D4FB7;stroke-miterlimit:10;}
</style>
<path class="st0" d="M51.8,271.8"/>
<g>
	<g>
		<path class="st1" d="M160,231.1"/>
	</g>
</g>
<g id="XMLID_436_">
	<path id="XMLID_409_" class="st2" d="M136.4,70.4c4.8-0.8,9.8-1.5,14.2,0.5c4,1.8,6.9,5.5,10,8.8c3.1,3.2,7.1,6.2,11.4,5.7
		c4.5-0.5,8.2-5,8.8-9.9c0.6-4.9-1.6-9.9-4.9-13.2c-3.4-3.3-7.8-5.1-12.4-5.8c-4.5-0.7-9.1-0.5-13.6-0.2"/>
	<path id="XMLID_375_" class="st2" d="M164.6,109.1c3.4,0.3,6.8,0.7,9.9,2.3s5.6,4.5,6,8c0.3,3.5-2.2,7.3-5.6,7.4
		c-2.1,0-4-1.2-5.5-2.7c-1.7-1.6-3.2-3.4-5-4.9c-2.1-1.7-4.4-2.4-6.9-3.3c-2.6-1-5.4-2.5-6.3-5.3"/>
	<path id="XMLID_373_" class="st3" d="M120.1,141.6c-0.4-10.9,3.7-22,11.6-29.2c7.9-7.2,19.4-10,29.3-6.6c4.1,1.4,9.7,3,14.7,6.3
		c-14.5-1.9-27.2,10.3-29.5,12.1c-1.5,1.1-2.8,2.4-4.1,3.6C136.3,133,126.8,138,120.1,141.6"/>
	<path id="XMLID_367_" class="st3" d="M112.4,116c0.9-5.2-0.7-10.5-1.6-15.6c-2-10.6-1.8-22,3-31.5c4.8-9.5,14.8-16.7,25.1-15.5
		c3.7,0.4,7.3,1.8,10.9,2.5c3.5,0.6,7,0.5,10.5,0.5c1.6,0,3.7,0.4,4.8,1.2c-10.1,2.6-15.7,11.9-25.5,17.2
		C129.5,80.1,128.2,99.6,112.4,116"/>
	<path id="XMLID_366_" class="st3" d="M104.1,103.3c-0.4-5.5-3.8-10.4-7.7-14.2c-3.9-3.8-8.3-7-11.8-11.2c-2.1-2.5-3.8-5.4-5.5-8.2
		c-2.5-4.2-5-8.3-7.5-12.5c-1.6-2.6-3.2-5.3-4.5-8.1c-1.5-3.1-2.6-6.3-3.6-9.5c-1-3.2-2-6.4-2.9-9.7c-0.7-2.5-1.3-5-1.4-7.6
		c0-2.6,0.6-5.3,2.3-7.2c2.2-2.6,5.8-3.4,9.1-2.9c3.3,0.6,6.2,2.4,8.9,4.4c1.7,1.2,3.3,2.6,4.6,4.2c3.5,4.4,4.5,10.3,6.5,15.6
		c3.5,9.6,10,17.8,13,27.6c1,3.1,1.5,6.4,2,9.7C106.5,80.4,107.7,95.7,104.1,103.3"/>
	<path id="XMLID_365_" class="st4" d="M72.7,23.4C78.3,34.3,83.9,45.1,89.5,56c2.1,4,4.2,8.1,6,12.3c9.7,22.8,12.9,76.1,11.9,110.9"
		/>
	<path id="XMLID_364_" class="st4" d="M148.5,56.2c-5.1-0.5-10,2-14,5.3c-12.6,10.4-17.4,28-20.1,44.5c-3.2,20-4.3,40.4-3.3,60.7"/>
	<path id="XMLID_363_" class="st4" d="M163.7,108.3c-10.9-2.6-22.6,2-30.5,10.2s-12.5,19.4-14.6,30.8c-2.1,11.4-2,23.1-1.9,34.7"/>
	<path id="XMLID_362_" class="st2" d="M88.8,101.2C77.4,86.8,60.6,75.5,42.7,79.9c-7.4,1.8-14.5,5.1-21.5,8.3
		c16.1-3.4,21.6-3.1,33,2.7c11.3,5.7,17.6,20,24.8,30.8C81.3,125,96,143.4,97,132.1C97.9,121.7,95.1,109.1,88.8,101.2z"/>
	<path id="XMLID_357_" class="st4" d="M36.6,81.7c12.7-2.5,26.4-1.2,36.1,8.1c9.7,9.4,19.5,30.7,23.6,44.3c4.1,13.6,6,27.8,7.9,42"
		/>
	<g id="XMLID_633_">
		<g id="XMLID_637_">
			<polygon id="XMLID_639_" class="st5" points="131,220.1 85.7,220.1 77,163.1 139.7,163.1 			"/>
			<polygon id="XMLID_638_" class="st6" points="137.2,179.2 137.7,175.9 78.9,175.9 79.5,179.2 			"/>
		</g>
		<line id="XMLID_636_" class="st7" x1="88.6" y1="177.5" x2="74.8" y2="271.8"/>
		<line id="XMLID_635_" class="st7" x1="127.8" y1="177.5" x2="141.6" y2="271.8"/>
		<line id="XMLID_634_" class="st7" x1="108.2" y1="177.5" x2="108.2" y2="271.8"/>
	</g>
	<path id="XMLID_376_" class="st3" d="M21.5,87.8c-6.9,4.9-10.7,11.7-4.8,20.5c4.3,6.3,13.5,6.8,20.2,3.4
		c6.7-3.4,11.5-9.6,16.7-15.2c5.1-5.6,21.2-9.1,21.2-9.1s-3.7-3.9-7.9-5.5c-2-0.8-4.1-1.6-6.2-2.1c-4.5-1.1-9.1-1.5-13.7-1.1
		C38.3,79.5,28.9,82.5,21.5,87.8z"/>
	<path id="XMLID_86_" class="st4" d="M60.8,79.7C44.5,81.3,30.8,89,25.6,98.5"/>
</g>
</svg>
