<?xml version="1.0" encoding="utf-8"?>
<!-- Generator: Adobe Illustrator 21.0.0, SVG Export Plug-In . SVG Version: 6.00 Build 0)  -->
<svg version="1.1" id="Layer_1" xmlns="http://www.w3.org/2000/svg" xmlns:xlink="http://www.w3.org/1999/xlink" x="0px" y="0px"
	 viewBox="0 0 283.5 283.5" style="enable-background:new 0 0 283.5 283.5;" xml:space="preserve">
<style type="text/css">
	.st0{fill:#E1E9F4;}
	.st1{fill:none;stroke:#93A5F9;stroke-miterlimit:10;}
	.st2{fill:#02A3A3;}
	.st3{fill:none;stroke:#7289F7;stroke-miterlimit:10;}
	.st4{fill:#02B7B7;}
	.st5{fill:none;stroke:#3F71EF;stroke-miterlimit:10;}
	.st6{fill:#FFDC72;}
	.st7{fill:#3D4FB7;}
	.st8{fill:none;stroke:#3D4FB7;stroke-miterlimit:10;}
	.st9{fill:#F2F9FF;}
</style>
<ellipse class="st0" cx="144.4" cy="265.1" rx="79.4" ry="6.5"/>
<path class="st1" d="M201,265.1"/>
<path id="XMLID_139_" class="st2" d="M149.7,128c-1,0.7-1.8,1.7-2.1,2.9c-0.8,2.5,0.7,5.2,2.2,7.4c3.6,5.5,7.1,11.1,10.7,16.6
	c2.8,4.3,10.6,13.3,16.3,9.3c4.7-3.4,2.1-11.5-0.1-15.7c-3.1-5.8-7-11.2-11.6-15.8c-2.1-2.1-4.3-4.1-7-5.2
	C155.3,126.3,152.1,126.3,149.7,128z"/>
<path id="XMLID_39_" class="st3" d="M153,131.4c6.2,6.2,11.6,13.4,15.8,21.2"/>
<path id="XMLID_474_" class="st4" d="M175.5,64.1c-1,0.7-1.8,1.7-2.1,2.9c-0.8,2.5,0.7,5.2,2.2,7.4c3.6,5.5,7.1,11.1,10.7,16.6
	c2.8,4.3,10.6,13.3,16.3,9.3c4.7-3.4,2.1-11.5-0.1-15.7c-3.1-5.8-7-11.2-11.6-15.8c-2.1-2.1-4.3-4.1-7-5.2
	C181.1,62.4,177.9,62.4,175.5,64.1z"/>
<path id="XMLID_84_" class="st3" d="M178.8,67.5c6.2,6.2,11.6,13.4,15.8,21.2"/>
<path id="XMLID_578_" class="st2" d="M128.8,123.3c-4.3-3.4-11.4-1.5-16,0.3c-9.1,3.6-17.9,9.7-22.5,18.7c-2.3,4.5-3.5,10-1.9,14.8
	c1,3.1,3.8,5.9,6.9,5.4c1.1-0.2,2.1-0.8,3-1.4c8-5,15.3-11.2,21.7-18.3C124,138.5,136.3,129.5,128.8,123.3"/>
<path id="XMLID_435_" class="st3" d="M103.7,147.1c6.7-8.1,14.7-15.1,23.5-20.7"/>
<path id="XMLID_64_" class="st2" d="M145,34.6c-0.9-7-6.7-12.2-12.6-15.5c-10.5-5.9-23.6-8.2-34.4-2.9c-1.2,0.6-2.5,1.4-2.8,2.7
	c-0.3,1.1,0.2,2.3,0.8,3.3c2,3.6,5,6.6,8.3,9c8.3,6.2,17.8,8.3,26.9,12.6c5.2,2.5,11.8,4.1,16.3,0.4"/>
<path id="XMLID_377_" class="st5" d="M115.6,58.7c19.3,40.2,13,84,21.9,128"/>
<path id="XMLID_404_" class="st5" d="M178.9,51.7c-3.5,0.2-5.1,4.5-5.9,8.1c-7.4,35-13.8,84-13.8,119.9"/>
<path id="XMLID_405_" class="st5" d="M106.5,102.8c15.4,29.1,9.5,61.5,19.6,93"/>
<path id="XMLID_25_" class="st2" d="M54.9,130.2c0.9,3.8,3.8,7.7,7.6,7.5c1.3-0.1,2.6-0.6,3.8-1.2c10.2-4.8,19.7-11.1,28.1-18.7
	c5.1-4.6,20.9-13.6,12.8-22.1"/>
<path id="XMLID_406_" class="st2" d="M107.2,95.7c-4.7-4.7-13.4-3.5-19.1-2c-11.4,3-22.5,8.9-29.2,19c-3.3,5.1-5.4,11.5-4,17.5"/>
<path id="XMLID_369_" class="st3" d="M74.3,120.5c9-8.7,19.4-15.9,30.6-21.3"/>
<path id="XMLID_480_" class="st4" d="M118.7,61c-1.8-5.5-13.9-6.2-18.4-6.5c-5.2-0.3-10.6,0.5-15.1,3.3c-4.5,2.8-7.9,7.7-8.1,13.2
	c0,0.8,0,1.7,0.4,2.4c0.5,1,1.6,1.6,2.6,2c4.7,2,9.9,2.1,14.9,1.3c5-0.8,9.8-2.5,14.6-4.2c2.1-0.7,4.1-1.5,5.9-2.9
	C117.9,67.9,119.6,64.1,118.7,61"/>
<path id="XMLID_437_" class="st3" d="M89.4,65.2c8.7-2.4,17.7-3.3,26.7-2.8"/>
<path id="XMLID_518_" class="st4" d="M90.4,108.2c-0.9,5.8-3.2,20.5,3.5,23.7c8.8,4.1,19.3-16.8,22.4-22.8c3.3-6.5,6.6-13,9.1-19.9
	c1.6-4.6,2.5-10.5-1-13.7c-2-1.8-4.8-2.2-7.4-1.8c-5.3,0.7-9.9,4-13.7,7.9C96.4,88.7,91.9,98.2,90.4,108.2z"/>
<path id="XMLID_441_" class="st3" d="M101.4,110.2c4.9-11.8,11.6-22.7,19.8-32.3"/>
<path id="XMLID_62_" class="st3" d="M116.8,25.9c8.7,2.1,16.9,6.2,24,11.8"/>
<path id="XMLID_403_" class="st5" d="M152.7,34.6c0,0-1,37.2,0.4,68.6c1.2,26.8,0.5,49.7-2.2,76.4"/>
<path id="XMLID_496_" class="st4" d="M150.7,26.4c-3.4-0.2-6.6,2.1-8.5,5c-1.9,2.9-2.8,6.4-3.6,9.9c-1.5,6.3-4.7,11.9-6.2,18.2
	c-1.7,6.8-2.3,13.8-1.9,20.8c0.2,3.6,1,7.7,3.9,9.6c2,1.3,4.6,1.3,6.8,0.4c2.2-0.9,4-2.6,5.6-4.4c5.1-5.9,7.9-13.5,9.4-21.3
	c1.5-8.3,1.4-16.7,2.9-24.8C160.2,33.4,157.3,27,150.7,26.4"/>
<path id="XMLID_61_" class="st3" d="M138.2,78.6c2-16.2,6.3-32,13-46.8"/>
<g id="XMLID_359_">
	<g id="XMLID_187_">
		<polygon id="XMLID_358_" class="st6" points="170.7,236.7 118.4,236.7 108.3,170.7 180.8,170.7 		"/>
		<polygon id="XMLID_214_" class="st7" points="178,189.3 178.6,185.5 110.5,185.5 111.1,189.3 		"/>
	</g>
	<line id="XMLID_182_" class="st8" x1="121.7" y1="187.4" x2="105.8" y2="265.1"/>
	<line id="XMLID_181_" class="st8" x1="167.1" y1="187.4" x2="183" y2="265.1"/>
	<line id="XMLID_160_" class="st8" x1="144.4" y1="187.4" x2="144.4" y2="265.1"/>
</g>
<path id="XMLID_513_" class="st2" d="M168.8,86.3c3.7-3.6,12-1.5,16.6-0.1c6.8,2.1,13.3,6.3,18.9,10.7c3.7,2.9,7.1,6.2,9.3,10.4
	c2.2,4.2,3.1,9.3,1.4,13.7c-0.6,1.6-1.6,3.1-3,4c-1.1,0.7-2.3,1-3.6,1.1c-4.5,0.6-9.3-0.4-13.3-2.8c-3.3-2-6-4.8-8.6-7.6
	c-5.1-5.4-10.3-10.8-15.5-16.1C167.4,95.8,164.4,90.9,168.8,86.3"/>
<path id="XMLID_471_" class="st3" d="M204,111.6c-9.7-8.9-20.8-16.2-32.7-21.7"/>
<path id="XMLID_63_" class="st4" d="M124.8,103.3c-2.4,3.9,7.8,13.5,10.1,15.9c5.3,5.5,11.2,10.3,17.6,14.2
	c5.7,3.5,12.3,6.5,18.7,4.9c2.3-0.6,4.7-1.9,5.6-4.2c0.7-1.7,0.5-3.6,0.2-5.4c-0.9-5.2-3-10.2-6.1-14.4c-5.4-7.3-13.5-11.8-22-14.1
	C141.8,98.1,129.5,95,124.8,103.3"/>
<path id="XMLID_65_" class="st3" d="M129.6,104.4c12.3,6.4,24.3,13.6,35.8,21.4"/>
<path id="XMLID_3_" class="st4" d="M227.6,59.2c0.9,4.3-1.6,8.5-4.8,11.4c-9.4,8.8-19.6,7.3-30.4,4c-7.6-2.3-27-3.2-22.1-16.8"/>
<path id="XMLID_519_" class="st4" d="M170.3,57.8c2.8-9.5,14.5-7.5,21-8.9c5.5-1.2,11.1-2.1,16.7-1.7c5.6,0.4,11.2,2.2,15.6,5.9
	c1.9,1.6,3.5,3.7,4,6.1"/>
<path id="XMLID_473_" class="st3" d="M219.3,67.9c-14.4-4.9-29.5-7.4-44.6-7.5"/>
<g>
	<g>
		<path class="st8" d="M68.5,265.1"/>
		<path class="st8" d="M68.5,58.8"/>
	</g>
	<line class="st9" x1="84" y1="53" x2="84" y2="64.7"/>
</g>
</svg>
